<svg width="161" height="350" viewBox="0 0 161 350" fill="none" xmlns="http://www.w3.org/2000/svg">
<path d="M10.5401 324.691H16.8V330.534H10.5401V348.868H3.43303V330.534H0V324.691H3.43303V323.617C3.43303 320.344 4.32173 317.82 6.09911 316.042C7.8765 314.265 10.3113 313.374 13.4034 313.369C14.77 313.306 16.1313 313.577 17.3697 314.158V320.235C16.5223 319.795 15.5776 319.577 14.6233 319.599C13.5658 319.553 12.5258 319.882 11.6869 320.527C10.8981 321.148 10.5109 322.192 10.5109 323.661L10.5401 324.691Z" fill="black"/>
<path d="M41.8025 343.12C40.8235 345.076 39.302 346.709 37.4199 347.824C35.3415 349.012 32.9763 349.606 30.5831 349.54C28.8067 349.56 27.0425 349.245 25.3824 348.613C23.8702 348.025 22.4952 347.132 21.3431 345.99C20.1987 344.833 19.2994 343.457 18.6989 341.944C18.0497 340.318 17.7246 338.581 17.7421 336.831C17.7222 335.092 18.0474 333.366 18.6989 331.754C19.3076 330.248 20.2059 328.875 21.3431 327.715C22.4703 326.56 23.8195 325.646 25.3094 325.027C28.5205 323.751 32.0978 323.751 35.309 325.027C36.7838 325.632 38.1133 326.543 39.2095 327.7C40.3103 328.885 41.1667 330.275 41.7295 331.791C42.3492 333.459 42.6562 335.227 42.6352 337.006C42.6352 337.437 42.6352 337.795 42.6352 338.087C42.6253 338.317 42.6009 338.546 42.5622 338.774H24.7469C24.8032 339.461 25.0049 340.128 25.3386 340.731C25.6676 341.327 26.1091 341.853 26.6387 342.28C27.7498 343.192 29.1456 343.686 30.5831 343.675C31.6981 343.73 32.8051 343.459 33.7678 342.893C34.5917 342.321 35.2779 341.572 35.7765 340.702L41.8025 343.12ZM35.6304 334.106C35.4939 332.854 34.879 331.702 33.9139 330.892C33.12 330.274 32.1815 329.868 31.1871 329.713C30.1927 329.559 29.1753 329.66 28.2311 330.008C27.0333 330.479 26.0242 331.331 25.3605 332.433C25.0569 332.945 24.8652 333.515 24.7981 334.106H35.6304Z" fill="black"/>
<path d="M71.1584 324.691V348.905H64.1535V345.669C63.3113 346.903 62.15 347.885 60.7935 348.51C59.3908 349.168 57.8581 349.503 56.3087 349.489C54.7424 349.507 53.1922 349.172 51.7727 348.51C50.3884 347.873 49.1464 346.964 48.1205 345.837C47.0722 344.666 46.2588 343.305 45.7247 341.827C44.5462 338.59 44.5462 335.042 45.7247 331.805C46.2771 330.327 47.0995 328.965 48.1497 327.788C49.1747 326.654 50.4166 325.738 51.8019 325.092C53.2226 324.434 54.772 324.1 56.3379 324.114C57.8709 324.1 59.3894 324.411 60.7935 325.027C62.1533 325.626 63.3174 326.596 64.1535 327.824V324.683L71.1584 324.691ZM51.948 336.801C51.9392 337.642 52.1059 338.476 52.4374 339.248C52.7532 339.986 53.2012 340.659 53.7595 341.235C54.3353 341.821 55.0219 342.286 55.7794 342.603C56.5368 342.921 57.3499 343.085 58.1713 343.085C58.9926 343.085 59.8057 342.921 60.5632 342.603C61.3206 342.286 62.0073 341.821 62.5831 341.235C63.1413 340.659 63.5894 339.986 63.9052 339.248C64.228 338.472 64.3943 337.639 64.3943 336.798C64.3943 335.957 64.228 335.124 63.9052 334.347C63.59 333.601 63.1421 332.918 62.5831 332.331C62.0216 331.771 61.3568 331.324 60.6255 331.016C59.8502 330.693 59.0185 330.527 58.1786 330.527C57.3386 330.527 56.507 330.693 55.7316 331.016C54.9951 331.322 54.3253 331.769 53.7595 332.331C53.2034 332.909 52.7556 333.582 52.4374 334.318C52.1013 335.102 51.9346 335.948 51.948 336.801Z" fill="black"/>
<path d="M84.2404 317.583V324.691H90.3688V330.534H84.2404V339.409C84.1904 339.908 84.2409 340.412 84.389 340.891C84.537 341.37 84.7796 341.815 85.1023 342.199C85.8345 342.808 86.7754 343.107 87.7246 343.032C88.1875 343.033 88.6488 342.977 89.0978 342.864C89.5502 342.75 89.9799 342.559 90.3688 342.301V348.474C89.7071 348.771 89.0169 349.001 88.3089 349.16C87.3496 349.37 86.3691 349.468 85.3872 349.452C84.2827 349.513 83.1776 349.346 82.1399 348.963C81.1023 348.58 80.1541 347.988 79.3538 347.224C77.893 345.764 77.1625 343.638 77.1625 340.928V330.571H73.7295V324.727H77.1625V317.62L84.2404 317.583Z" fill="black"/>
<path d="M100.069 348.905H92.9111V314.574H100.069V327.722C100.791 326.571 101.797 325.625 102.991 324.976C104.298 324.297 105.755 323.96 107.228 323.997C108.45 323.93 109.673 324.132 110.808 324.589C111.944 325.045 112.966 325.746 113.802 326.641C115.389 328.409 116.18 330.827 116.175 333.894V348.846H109.024V335.574C109.105 334.26 108.703 332.961 107.892 331.922C107.492 331.482 106.998 331.138 106.447 330.913C105.896 330.688 105.302 330.588 104.708 330.622C104.075 330.595 103.444 330.713 102.863 330.966C102.282 331.219 101.766 331.601 101.355 332.083C100.474 333.214 100.03 334.625 100.106 336.056L100.069 348.905Z" fill="black"/>
<path d="M142.435 343.119C141.46 345.079 139.938 346.713 138.052 347.823C135.974 349.012 133.608 349.606 131.215 349.54C129.441 349.56 127.679 349.245 126.022 348.612C124.51 348.024 123.135 347.132 121.982 345.99C120.838 344.833 119.939 343.456 119.338 341.943C118.692 340.317 118.368 338.58 118.381 336.83C118.365 335.092 118.69 333.367 119.338 331.754C119.947 330.247 120.845 328.875 121.982 327.715C123.105 326.565 124.446 325.651 125.927 325.027C129.135 323.751 132.711 323.751 135.919 325.027C137.394 325.631 138.723 326.543 139.82 327.7C140.923 328.883 141.78 330.273 142.34 331.79C142.959 333.458 143.266 335.226 143.245 337.006C143.245 337.437 143.245 337.795 143.245 338.087C143.235 338.317 143.211 338.546 143.172 338.773H125.364C125.415 339.461 125.614 340.128 125.949 340.731C126.28 341.325 126.721 341.85 127.249 342.279C127.792 342.72 128.404 343.068 129.06 343.309C129.745 343.554 130.466 343.678 131.193 343.675C132.308 343.731 133.416 343.46 134.378 342.893C135.202 342.321 135.888 341.572 136.387 340.702L142.435 343.119ZM136.262 334.106C136.129 332.852 135.513 331.7 134.546 330.892C133.752 330.273 132.814 329.868 131.819 329.713C130.825 329.558 129.807 329.66 128.863 330.008C128.256 330.249 127.693 330.589 127.198 331.016C126.724 331.422 126.317 331.901 125.993 332.433C125.689 332.945 125.497 333.515 125.43 334.106H136.262Z" fill="black"/>
<path d="M160.695 331.652C160.12 331.423 159.502 331.323 158.884 331.36C158 331.315 157.118 331.478 156.309 331.835C155.5 332.193 154.785 332.736 154.224 333.419C153.033 335.047 152.444 337.037 152.558 339.051V348.905H145.451V324.691H152.514V328.679C153.114 327.335 154.081 326.188 155.305 325.37C156.54 324.561 157.991 324.143 159.468 324.172C159.712 324.173 159.956 324.187 160.199 324.216C160.358 324.229 160.515 324.264 160.666 324.318L160.695 331.652Z" fill="black"/>
<path d="M132.99 19.6474C124.285 27.1793 117.305 36.4984 112.526 46.9702C107.746 57.442 105.279 68.8207 105.292 80.3317V219.472L0 280.288V80.3317C0.00305764 64.9272 4.43435 49.8482 12.766 36.8912C21.0976 23.9342 32.9783 13.6454 46.9928 7.2505C61.0072 0.855592 76.5646 -1.37582 91.8116 0.822088C107.058 3.02 121.352 9.55458 132.99 19.6474Z" fill="#E9672B"/>
<path d="M160.695 80.3318V251.392L105.292 219.472V80.3318C105.279 68.8208 107.746 57.4421 112.526 46.9703C117.306 36.4985 124.285 27.1795 132.99 19.6475L133.91 20.4363C142.351 27.9625 149.102 37.1912 153.719 47.5149C158.336 57.8385 160.713 69.0229 160.695 80.3318Z" fill="#A2D4C5"/>
<path d="M160.695 251.392V280.288H0L105.292 219.472L160.695 251.392Z" fill="#AF4920"/>
</svg>
