<svg xmlns="http://www.w3.org/2000/svg" xmlns:xlink="http://www.w3.org/1999/xlink" preserveAspectRatio="xMidYMid" width="255.626" height="40.469" viewBox="0 0 255.626 40.469">
  <defs>
    <style>
      .cls-1 {
        fill: #fff;
        fill-rule: evenodd;
      }
    </style>
  </defs>
  <path d="M255.616,40.458 L220.101,40.458 L220.101,32.369 L240.239,9.706 L220.790,9.706 L220.790,0.296 L255.616,0.296 L255.616,8.386 L235.477,31.049 L255.616,31.049 L255.616,40.458 ZM204.214,40.458 L196.124,28.295 L196.010,28.295 L191.248,28.295 L191.248,40.458 L180.117,40.458 L180.117,0.296 L199.108,0.296 C205.247,0.296 209.493,1.903 212.189,4.657 C214.542,6.952 215.746,10.050 215.746,14.009 L215.746,14.124 C215.746,20.263 212.476,24.336 207.484,26.459 L217.066,40.458 L204.214,40.458 ZM204.558,14.697 C204.558,11.542 202.263,9.935 198.534,9.935 L191.248,9.935 L191.248,19.574 L198.591,19.574 C202.378,19.574 204.558,17.738 204.558,14.812 L204.558,14.697 ZM151.493,40.458 L136.232,40.458 L136.232,0.296 L151.723,0.296 C166.066,0.296 174.385,8.558 174.385,20.148 L174.385,20.263 C174.385,31.852 165.951,40.458 151.493,40.458 ZM162.968,20.320 C162.968,13.894 158.550,10.165 151.895,10.165 L147.362,10.165 L147.362,30.590 L151.895,30.590 C158.550,30.590 162.968,26.918 162.968,20.435 L162.968,20.320 ZM119.255,40.458 L111.566,28.352 L103.821,40.458 L91.492,40.458 L91.313,40.458 L79.559,40.458 L76.633,33.287 L61.142,33.287 L58.273,40.458 L46.569,40.458 L63.666,0.010 L74.395,0.010 L91.423,40.295 L105.083,20.033 L91.887,0.296 L104.682,0.296 L111.796,11.599 L118.968,0.296 L131.475,0.296 L118.279,19.918 L132.049,40.458 L119.255,40.458 ZM68.944,13.206 L64.412,24.623 L73.420,24.623 L68.944,13.206 ZM31.601,17.394 L21.331,33.115 L21.101,33.115 L10.888,17.509 L10.888,40.458 L-0.013,40.458 L-0.013,0.296 L11.749,0.296 L21.331,15.845 L30.912,0.296 L42.674,0.296 L42.674,40.458 L31.601,40.458 L31.601,17.394 Z" class="cls-1"/>
</svg>
