<svg xmlns="http://www.w3.org/2000/svg" width="159.969" height="160" viewBox="0 0 159.969 160">
  <defs>
    <style>
      .cls-1 {
        fill: #ee2022;
        fill-rule: evenodd;
      }
    </style>
  </defs>
  <path id="MET_Logo.svg" data-name="MET Logo.svg" class="cls-1" d="M527.26,1863.65H443.473a16.212,16.212,0,0,0-6.774,1.47,8.847,8.847,0,0,0-4.639,4.77l-18.038,42.17-18.849-41.29q-1.917-4.26-5.117-5.68a18.878,18.878,0,0,0-7.767-1.44h-12.3v1.47a13.116,13.116,0,0,1,7.325,2.05,12.089,12.089,0,0,1,4.6,5.58v51.85a11.111,11.111,0,0,1-.92,4.62,9.735,9.735,0,0,1-2.54,3.45,11.29,11.29,0,0,1-3.791,2.13,14.5,14.5,0,0,1-4.675.73V1937h26.5v-1.47a14.482,14.482,0,0,1-4.675-.73,11.266,11.266,0,0,1-3.792-2.13,9.75,9.75,0,0,1-2.541-3.45,11.126,11.126,0,0,1-.919-4.62v-46.35l23.487,51.42h0.883l23.193-54.21,0.074,49.14a11.143,11.143,0,0,1-.921,4.62,9.757,9.757,0,0,1-2.539,3.45,11.309,11.309,0,0,1-3.793,2.13,14.5,14.5,0,0,1-4.675.73V1937h56.545l3.093-23.18h-1.031a41.64,41.64,0,0,1-3.828,7.81,31.9,31.9,0,0,1-5.559,6.71,26.192,26.192,0,0,1-7.18,4.7,21.275,21.275,0,0,1-8.687,1.76h-8.762v-33.89q8.763,0,13.475,4.11t6.478,12.47H466l-4.27-35.21h-1.178a28.415,28.415,0,0,1-.847,7.38,12.344,12.344,0,0,1-2.724,5.17,11.3,11.3,0,0,1-4.859,3.04,23.2,23.2,0,0,1-7.253.99v-33.01h5.448a22.977,22.977,0,0,1,8.836,1.54,16.8,16.8,0,0,1,6.148,4.33,20.973,20.973,0,0,1,3.9,6.64,44.224,44.224,0,0,1,2.171,8.47h1.032a45.825,45.825,0,0,1,2.133-8.55,20.722,20.722,0,0,1,3.792-6.59,16.561,16.561,0,0,1,5.854-4.3,20.482,20.482,0,0,1,8.32-1.54V1937h24.518v-1.47a14.476,14.476,0,0,1-4.674-.73,11.275,11.275,0,0,1-3.794-2.13,9.762,9.762,0,0,1-2.539-3.41,11.073,11.073,0,0,1-.921-4.66v-59.48a16.35,16.35,0,0,1,8.136,2.13,29.542,29.542,0,0,1,6.884,5.35,38.114,38.114,0,0,1,5.339,7.04,45.963,45.963,0,0,1,3.5,7.19h1.03Zm-2.466-36.48a41.889,41.889,0,0,1-3.83,7.81,31.8,31.8,0,0,1-5.558,6.71,26.433,26.433,0,0,1-7.179,4.7,21.275,21.275,0,0,1-8.687,1.76H487.759v-33.89a28.6,28.6,0,0,1,7.842,1.03,20.216,20.216,0,0,1,6.479,3.08,18.744,18.744,0,0,1,4.822,5.17,21.773,21.773,0,0,1,2.872,7.3h1.177l-4.712-35.21h-1.178q0.074,9.03-4.123,12.8t-13.179,3.78V1779.2h8.835a21.276,21.276,0,0,1,8.688,1.76,26.207,26.207,0,0,1,7.18,4.7,31.826,31.826,0,0,1,5.557,6.71,41.884,41.884,0,0,1,3.829,7.81h1.031L519.787,1777H465.23v1.47c3.239,0,5.7.8,7.4,2.42s2.54,4.06,2.54,7.33v23.99H447.926v-23.99q0-9.75,9.941-9.75V1777H377.244l-3.092,23.18h1.032a34.381,34.381,0,0,1,3.792-7.15,44.019,44.019,0,0,1,5.853-7.01,33.373,33.373,0,0,1,7.252-5.39,16.318,16.318,0,0,1,7.915-2.16v59.48a11.153,11.153,0,0,1-.921,4.66,9.869,9.869,0,0,1-2.54,3.41,11.29,11.29,0,0,1-3.791,2.13,14.5,14.5,0,0,1-4.676.73v1.47h24.518v-71.88a38.061,38.061,0,0,1,9.351,1.06,18.436,18.436,0,0,1,7.178,3.48,15.753,15.753,0,0,1,4.6,6.35,25.346,25.346,0,0,1,1.619,9.64v38.95a11.159,11.159,0,0,1-.919,4.62,9.75,9.75,0,0,1-2.541,3.45,11.28,11.28,0,0,1-3.791,2.13,14.5,14.5,0,0,1-4.677.73v1.47h34.459v-1.47q-5.08,0-7.511-2.31t-2.43-7.44v-24.72h27.243v24.72q0,5.13-2.429,7.44t-7.51,2.31v1.47h57.5l3.092-23.18h-1.03Z" transform="translate(-370 -1777)"/>
</svg>
