<svg xmlns="http://www.w3.org/2000/svg" xmlns:xlink="http://www.w3.org/1999/xlink" preserveAspectRatio="xMidYMid" width="320" height="385" viewBox="0 0 320 385">
  <defs>
    <style>
      .cls-1 {
        fill: #fff;
        fill-rule: evenodd;
      }
    </style>
  </defs>
  <path d="M261.515,221.732 L261.515,221.732 L250.649,276.847 L68.985,276.847 L58.484,221.732 L261.515,221.732 M272.372,139.772 L272.372,139.772 L261.515,194.891 L58.123,194.891 L47.628,139.772 L272.372,139.772 M283.224,57.805 L283.224,57.805 L272.372,112.922 L47.267,112.922 L36.770,57.805 L283.224,57.805 M320.011,-0.004 L-0.011,-0.004 C-0.011,-0.004 -0.011,48.119 -0.011,144.370 C-0.011,336.868 160.007,384.986 160.007,384.986 C160.007,384.986 320.011,336.868 320.011,144.370 C320.011,48.119 320.011,-0.004 320.011,-0.004 " class="cls-1"/>
</svg>
