<svg width="534" height="173" viewBox="0 0 534 173" fill="none" xmlns="http://www.w3.org/2000/svg">
<path d="M210.813 124.344V112.518L247.981 62.9092H210.967V45.7075H275.166V57.5337L237.998 107.142H275.013V124.344H210.813Z" fill="#242947"/>
<path d="M314.302 125.419C307.903 125.419 302.425 124.152 297.868 121.618C293.312 119.058 289.818 115.5 287.386 110.943C284.954 106.361 283.738 101.05 283.738 95.0088C283.738 88.9678 284.954 83.669 287.386 79.1126C289.818 74.5306 293.312 70.9725 297.868 68.4383C302.425 65.8786 307.903 64.5987 314.302 64.5987C320.702 64.5987 326.179 65.8786 330.736 68.4383C335.292 70.9725 338.786 74.5306 341.218 79.1126C343.65 83.669 344.866 88.9678 344.866 95.0088C344.866 101.05 343.65 106.361 341.218 110.943C338.786 115.5 335.292 119.058 330.736 121.618C326.179 124.152 320.702 125.419 314.302 125.419ZM314.456 109.753C316.248 109.753 317.796 109.152 319.102 107.949C320.407 106.745 321.418 105.03 322.135 102.803C322.852 100.576 323.21 97.927 323.21 94.8552C323.21 91.7579 322.852 89.1085 322.135 86.9071C321.418 84.6801 320.407 82.9651 319.102 81.762C317.796 80.5589 316.248 79.9573 314.456 79.9573C312.561 79.9573 310.936 80.5589 309.579 81.762C308.223 82.9651 307.186 84.6801 306.469 86.9071C305.752 89.1085 305.394 91.7579 305.394 94.8552C305.394 97.927 305.752 100.576 306.469 102.803C307.186 105.03 308.223 106.745 309.579 107.949C310.936 109.152 312.561 109.753 314.456 109.753Z" fill="#242947"/>
<path d="M374.662 45.7075V124.344H353.467V45.7075H374.662Z" fill="#242947"/>
<path d="M420.632 65.3666V80.7253H381.775V65.3666H420.632ZM389.3 51.2366H410.495V105.376C410.495 106.195 410.636 106.886 410.918 107.449C411.199 107.987 411.634 108.396 412.223 108.678C412.812 108.934 413.567 109.062 414.489 109.062C415.128 109.062 415.871 108.985 416.716 108.832C417.586 108.678 418.226 108.55 418.635 108.448L421.707 123.346C420.76 123.627 419.403 123.973 417.637 124.382C415.896 124.792 413.823 125.061 411.417 125.189C406.553 125.445 402.47 124.945 399.168 123.691C395.866 122.411 393.383 120.402 391.719 117.663C390.055 114.924 389.249 111.494 389.3 107.373V51.2366Z" fill="#242947"/>
<path d="M445.715 125.265C441.952 125.265 438.624 124.651 435.731 123.422C432.865 122.168 430.612 120.274 428.974 117.74C427.335 115.205 426.516 111.98 426.516 108.064C426.516 104.838 427.067 102.087 428.167 99.8084C429.268 97.5046 430.804 95.6232 432.775 94.1641C434.746 92.705 437.037 91.5915 439.648 90.8236C442.285 90.0557 445.126 89.5565 448.172 89.3261C451.474 89.0701 454.123 88.763 456.12 88.4046C458.142 88.0206 459.601 87.4959 460.497 86.8303C461.393 86.1392 461.841 85.2305 461.841 84.1042V83.9506C461.841 82.4147 461.252 81.2372 460.075 80.4181C458.897 79.599 457.387 79.1894 455.544 79.1894C453.522 79.1894 451.871 79.6374 450.591 80.5333C449.337 81.4036 448.582 82.7475 448.326 84.5649H428.82C429.076 80.9812 430.215 77.6791 432.237 74.6586C434.285 71.6125 437.267 69.1807 441.184 67.3632C445.1 65.5202 449.989 64.5987 455.851 64.5987C460.075 64.5987 463.863 65.0978 467.217 66.0962C470.57 67.0689 473.424 68.4383 475.779 70.2046C478.134 71.9452 479.926 73.9931 481.155 76.3481C482.409 78.6774 483.036 81.2116 483.036 83.9506V124.344H463.224V116.05H462.763C461.585 118.252 460.152 120.031 458.462 121.387C456.798 122.744 454.891 123.73 452.741 124.344C450.617 124.958 448.274 125.265 445.715 125.265ZM452.626 111.903C454.239 111.903 455.749 111.571 457.157 110.905C458.59 110.24 459.755 109.28 460.651 108.025C461.547 106.771 461.995 105.248 461.995 103.456V98.5413C461.432 98.7717 460.83 98.9893 460.19 99.1941C459.576 99.3989 458.91 99.5908 458.194 99.77C457.502 99.9492 456.76 100.116 455.967 100.269C455.199 100.423 454.392 100.564 453.548 100.692C451.909 100.948 450.565 101.37 449.516 101.959C448.492 102.522 447.724 103.226 447.212 104.07C446.726 104.89 446.483 105.811 446.483 106.835C446.483 108.473 447.059 109.728 448.21 110.598C449.362 111.468 450.834 111.903 452.626 111.903Z" fill="#242947"/>
<path d="M493.163 124.344V65.3666H513.744V76.5784H514.358C515.433 72.4316 517.136 69.3983 519.465 67.4784C521.82 65.5586 524.572 64.5987 527.72 64.5987C528.642 64.5987 529.551 64.6755 530.446 64.8291C531.368 64.9571 532.251 65.149 533.096 65.405V83.4898C532.046 83.1315 530.754 82.8627 529.218 82.6835C527.682 82.5043 526.364 82.4147 525.263 82.4147C523.189 82.4147 521.321 82.8883 519.657 83.8354C518.019 84.7569 516.726 86.0624 515.779 87.7519C514.832 89.4157 514.358 91.374 514.358 93.6266V124.344H493.163Z" fill="#242947"/>
<rect x="32.4375" y="24.3281" width="91.9062" height="102.719" fill="#FBF8F5"/>
<path fill-rule="evenodd" clip-rule="evenodd" d="M116.801 143.396C139.141 129.874 154.078 105.302 154.078 77.2321C154.078 34.578 119.587 0 77.0391 0C34.4916 0 0 34.578 0 77.2321C0 105.302 14.9369 129.874 37.277 143.396C38.276 144 39.2897 144.583 40.3177 145.143C51.2336 151.088 63.743 154.464 77.0391 154.464C91.5872 154.464 105.194 150.422 116.801 143.396ZM98.3237 43.25H46.2234V61.6804H75.6384V62.0315L46.2234 97.3125V111.214H104.773V92.2222H77.3892V91.8711L104.773 57.9943V49.7156C104.759 49.5825 104.738 49.3908 104.706 49.1543C104.635 48.617 104.52 47.8907 104.347 47.121C104.169 46.3334 103.957 45.6195 103.726 45.0613C103.567 44.7278 103.299 44.4588 102.966 44.2992C102.41 44.0678 101.697 43.8552 100.912 43.6774C100.144 43.5036 99.4197 43.3882 98.8837 43.317C98.6477 43.2856 98.4564 43.2639 98.3237 43.25ZM114.018 33.9821C111.45 31.4077 110.936 24.7144 110.936 24.7144C110.936 24.7144 110.423 31.4077 107.855 33.9821C105.287 36.5563 98.61 37.0714 98.61 37.0714C98.61 37.0714 105.287 37.5863 107.855 40.1607C110.423 42.7351 110.936 49.4287 110.936 49.4287C110.936 49.4287 111.45 42.7351 114.018 40.1607C116.586 37.5863 123.263 37.0714 123.263 37.0714C123.263 37.0714 116.586 36.5563 114.018 33.9821Z" fill="#242947"/>
<path d="M27.7341 159.275L34.096 148.689C46.6323 156.277 61.3271 160.643 77.0391 160.643C92.7511 160.643 107.446 156.277 119.982 148.689L126.344 159.275C111.951 167.987 95.0788 173 77.0391 173C58.9994 173 42.1275 167.987 27.7341 159.275Z" fill="#242947"/>
</svg>
